<svg xmlns="http://www.w3.org/2000/svg" height="1024" preserveAspectRatio="none" style="display: block;" version="1.1" viewBox="0 0 2048 2048" width="1024">
<path d="M 0 0 L 2048 0 L 2048 2048 L 0 2048 L 0 0 z" fill="rgb(0,0,0)"></path>
<path d="M 282.087 377.643 C 285.574 380.29 290.032 385.008 293.202 388.076 C 322.816 416.738 351.406 446.453 381.006 475.121 L 381.002 839.617 C 384.836 843.291 388.693 846.941 392.573 850.567 C 393.585 821.354 392.934 788.697 392.94 759.149 L 392.94 588.063 C 392.941 555.658 392.413 521.435 393.256 489.151 C 424.299 514.51 459.135 557.611 491.114 584.594 L 490.982 910.72 C 491.042 990.462 490.23 1070.79 491.099 1150.49 L 806.302 833.139 L 942.19 833.314 C 917.388 860.026 884.612 891.602 858.444 917.723 C 779.609 994.388 701.106 1076.65 622.907 1154.71 L 532.871 1244.18 C 522.044 1255.09 500.259 1275.98 491.406 1287.46 C 489.173 1376.78 490.979 1472.99 491.094 1562.76 C 469.226 1540.2 445.727 1518.6 423.74 1496.08 C 413.345 1485.44 401.271 1474.72 392.013 1463.23 C 393.359 1404.78 392.227 1342.03 392.23 1283.14 L 392.249 971.892 C 371.18 949.337 345.836 925.507 323.577 903.549 L 248.174 828.481 C 219.954 800.707 192.391 774.355 164.689 745.919 C 203.454 746.46 243.23 745.973 282.072 745.939 L 282.087 377.643 z" fill="rgb(255,255,255)"></path>
<path d="M 1620.04 578.684 C 1625.98 582.701 1652.31 610.05 1659.03 616.867 C 1680.17 638.44 1701.6 659.727 1723.31 680.722 C 1724.24 698.287 1723.76 719.04 1723.76 736.752 L 1723.81 828.729 L 1723.72 1124.88 C 1704.31 1148.22 1677.67 1174.12 1656.1 1196.39 C 1680.27 1224.15 1708.93 1249.67 1734.81 1275.59 C 1770.32 1311.13 1805.62 1346.58 1841.76 1381.54 C 1843.26 1420.97 1841.92 1471.15 1841.95 1511.55 C 1815.58 1483.87 1783.3 1453.93 1755.61 1426.32 C 1723.14 1394.79 1692.34 1363.05 1660.51 1331.12 L 1600.06 1271.27 C 1539.61 1209.75 1478.72 1148.67 1417.37 1088.05 L 1543.75 1088.16 L 1582.72 1127.22 C 1594.78 1112.31 1607.09 1097.62 1619.66 1083.14 C 1621.66 1023.64 1620.02 956.205 1619.93 896.023 L 1620.04 578.684 z" fill="rgb(255,255,255)"></path>
<path d="M 1148.43 852.279 C 1201.63 852.26 1256.41 852.841 1309.48 851.821 C 1299.44 864.008 1267.87 892.731 1254.94 905.585 C 1253.33 1039.26 1254.23 1176.37 1254.73 1310.35 C 1290.36 1311.39 1332.17 1310.27 1368.31 1310.22 C 1385.2 1295.42 1400.64 1276.81 1417.68 1260.95 C 1443.58 1286 1469.14 1311.39 1494.37 1337.12 C 1479.35 1353.29 1459.44 1371.44 1443.31 1386.9 C 1432.2 1397.51 1421.01 1408.03 1409.75 1418.46 C 1393.55 1419.43 1370.63 1418.87 1354.13 1418.87 L 1254.71 1418.78 C 1254.84 1460.02 1254.17 1501.87 1254.6 1542.95 C 1226.48 1517.77 1200.12 1489.29 1172.73 1463.2 C 1164.5 1455.35 1155.48 1446.39 1148.22 1437.71 L 1148.43 852.279 z" fill="rgb(255,255,255)"></path>
<path d="M 1261.19 1088.43 C 1304.24 1086.95 1355.24 1088 1398.76 1088.28 C 1493.83 1183.97 1589.54 1279.02 1685.87 1373.44 L 1789.84 1477.2 C 1805.88 1493.21 1825.07 1513.69 1841.68 1528.59 C 1843.01 1570.92 1841.98 1619.65 1842.05 1662.6 C 1835.41 1658.34 1797.55 1619.01 1789.87 1611.42 C 1737.86 1560.9 1686.36 1509.85 1635.38 1458.29 C 1614.2 1437.23 1590.86 1418.6 1569.37 1398.01 C 1506.15 1337.47 1445.22 1274.05 1383.53 1211.92 L 1311.06 1138.94 C 1294.18 1122.07 1277.26 1106.22 1261.19 1088.43 z" fill="rgb(255,255,255)"></path>
<path d="M 1125.67 740.97 C 1145.18 741.906 1167.52 741.549 1187.31 741.625 L 1298.14 741.774 L 1608.99 741.331 L 1608.96 843.298 L 1511.36 843.277 L 1024.73 842.986 C 1057.7 808.714 1093.13 775.059 1125.67 740.97 z" fill="rgb(255,255,255)"></path>
<path d="M 1736.06 695.373 C 1741.25 697.753 1868.97 826.995 1883.92 843.062 L 1838.57 843.015 C 1836.69 907.97 1839.71 974.546 1838.45 1039.75 C 1836.97 1116.4 1847.28 1172.56 1782.72 1227.82 L 1741.91 1267.72 C 1719.59 1248.27 1694.16 1218.1 1671.2 1196.52 C 1693.27 1173.23 1714.97 1149.57 1736.28 1125.58 C 1734.52 1076.68 1735.95 1018.92 1735.95 969.566 L 1736.06 695.373 z" fill="rgb(255,255,255)"></path>
<path d="M 282.831 879.618 C 313.474 907.28 351.017 946.165 380.985 975.597 L 380.701 1451.94 L 324.251 1396.75 C 297.324 1369.58 270.139 1342.67 242.701 1316.02 C 218.89 1292.6 196.08 1269.46 171.791 1246.45 C 207.354 1245.31 246.192 1246.03 281.997 1246.01 L 282.101 1022.59 C 282.111 975.903 281.51 926.192 282.831 879.618 z" fill="rgb(255,255,255)"></path>
<path d="M 1137.66 850.964 C 1139.37 850.896 1138.52 850.679 1140.11 851.92 C 1140.63 919.179 1140.72 986.441 1140.37 1053.7 L 1139.84 1421.13 C 1124.97 1407.79 1107.85 1390.13 1093.36 1375.92 C 1076.38 1359.5 1059.13 1341.55 1042.46 1324.66 L 1042.12 1088.71 L 1042.03 1017.5 C 1042.02 1007.07 1042.04 996.638 1042.1 986.212 C 1042.48 925.468 1079.48 870.077 1137.66 850.964 z" fill="rgb(255,255,255)"></path>
<path d="M 669.062 1121.84 C 674.864 1126.26 689.904 1143.24 695.696 1149.11 C 717.272 1170.94 738.962 1192.67 760.765 1214.28 L 910.218 1362.73 C 932.915 1385.21 955.575 1406.64 978.004 1429.61 C 978.387 1465.41 977.741 1501.31 978.064 1537.13 C 978.146 1546.23 978.034 1555.13 978.62 1564.24 C 968.638 1553.35 956.134 1541.54 945.5 1531.04 L 601.145 1190.06 C 623.794 1169.04 647.287 1144.13 669.062 1121.84 z" fill="rgb(255,255,255)"></path>
<path d="M 1286.2 629.397 C 1293.41 628.301 1312.83 628.763 1320.62 628.797 L 1383.19 629.002 L 1609.01 629.132 L 1609 731.016 L 1462.5 731.191 C 1355.49 731.158 1244.64 729.795 1137.91 731.698 C 1156 712.485 1174.96 694.836 1192.63 674.99 C 1215.73 649.056 1251.74 632.74 1286.2 629.397 z" fill="rgb(255,255,255)"></path>
<path d="M 743.97 1047.59 C 749.249 1050.55 793.568 1096.84 801.284 1104.55 L 977.124 1279.72 C 978.434 1294.23 977.893 1316 977.915 1330.88 L 978.108 1413.72 C 966.87 1403.04 955.75 1392.23 944.753 1381.3 C 895.824 1334.31 846.392 1283.99 798.314 1235.87 L 677.102 1115.44 C 699.638 1093.07 721.928 1070.45 743.97 1047.59 z" fill="rgb(255,255,255)"></path>
<path d="M 653.831 833.428 C 698.749 833.563 746.003 832.658 790.67 833.54 C 782.267 842.563 770.623 853.34 761.615 862.389 C 740.716 883.56 719.701 904.617 698.572 925.559 L 570.5 1054.12 C 547.461 1077.32 524.273 1100.37 500.938 1123.27 C 499.376 1081.6 500.7 1031.73 500.753 989.495 C 517.219 973.104 533.346 955.711 549.781 939.115 C 584.884 904.301 619.569 869.07 653.831 833.428 z" fill="rgb(255,255,255)"></path>
<path d="M 1500.36 1344.68 C 1505.11 1348.82 1510.85 1354.94 1515.28 1359.53 C 1532.89 1377.79 1552.1 1394.95 1569.53 1413.3 C 1550.8 1431.5 1532.3 1449.94 1514.04 1468.61 C 1491.7 1491.79 1485.27 1509.07 1451.31 1524.25 C 1415.28 1540.34 1382.19 1539.84 1345.74 1526.46 C 1302.17 1507.11 1277.24 1473.58 1264.53 1428.6 C 1314.21 1428.27 1363.98 1429.27 1413.72 1428.68 C 1430.19 1413.57 1445.62 1397.83 1461.6 1382.21 C 1474.44 1369.65 1488 1357.67 1500.36 1344.68 z" fill="rgb(255,255,255)"></path>
<text x="50%" y="95%" text-anchor="middle" font-family="Impact, Arial Black, sans-serif" font-size="300" font-weight="700" letter-spacing="8" fill="rgb(255,255,255)">Matches</text>
</svg>